<svg xmlns="http://www.w3.org/2000/svg" viewBox="0 0 50 50" width="100" height="100">
    <path d="M 5 5 C 3.9 5 3 5.9 3 7 L 3 43 C 3 44.1 3.9 45 5 45 L 45 45 C 46.1 45 47 44.1 47 43 L 47 31.199219 L 45 33.199219 L 45 43 L 5 43 L 5 7 L 45 7 L 45 16.800781 L 47 18.800781 L 47 7 C 47 5.9 46.1 5 45 5 L 5 5 z M 20.5 11 C 18.6 11 17 12.6 17 14.5 C 17 16.4 18.6 18 20.5 18 L 29.5 18 C 31.4 18 33 16.4 33 14.5 C 33 12.6 31.4 11 29.5 11 L 20.5 11 z M 20.5 13 L 29.5 13 C 30.3 13 31 13.7 31 14.5 C 31 15.3 30.3 16 29.5 16 L 20.5 16 C 19.7 16 19 15.3 19 14.5 C 19 13.7 19.7 13 20.5 13 z M 42 17 C 41.75 17 41.500781 17.100781 41.300781 17.300781 C 40.900781 17.700781 40.900781 18.299219 41.300781 18.699219 L 46.599609 24 L 29 24 C 28.4 24 28 24.4 28 25 C 28 25.6 28.4 26 29 26 L 46.599609 26 L 41.300781 31.300781 C 40.900781 31.700781 40.900781 32.299219 41.300781 32.699219 C 41.500781 32.899219 41.7 33 42 33 C 42.3 33 42.499219 32.899219 42.699219 32.699219 L 49.699219 25.699219 C 50.099219 25.299219 50.099219 24.700781 49.699219 24.300781 L 42.699219 17.300781 C 42.499219 17.100781 42.25 17 42 17 z"/>
</svg>